<?xml version="1.0" encoding="iso-8859-1"?>
<!-- Uploaded to: SVG Repo, www.svgrepo.com, Generator: SVG Repo Mixer Tools -->
<!DOCTYPE svg PUBLIC "-//W3C//DTD SVG 1.1//EN" "http://www.w3.org/Graphics/SVG/1.1/DTD/svg11.dtd">
<svg fill="#1D2427" height="800px" width="800px" version="1.1" id="Capa_1" xmlns="http://www.w3.org/2000/svg" xmlns:xlink="http://www.w3.org/1999/xlink" 
	 viewBox="0 0 298.399 298.399" xml:space="preserve">
<g>
	<g>
		<path d="M260.393,174.263l17.678-17.678c-7.948-7.948-17.38-13.521-27.409-16.755l47.737-46.162L281.02,75.697l-51.955,50.242
			l-51.421-49.71l-17.377,17.975l47.395,45.817c-9.808,3.262-19.025,8.773-26.817,16.564c-12.985,12.985-20.137,30.25-20.137,48.614
			c0,18.363,7.151,35.628,20.137,48.613c12.985,12.985,30.25,20.137,48.613,20.137c18.364,0,35.628-7.151,48.613-20.137
			l-17.678-17.678c-8.264,8.264-19.25,12.814-30.936,12.814s-22.672-4.551-30.936-12.814c-8.264-8.264-12.814-19.25-12.814-30.936
			c0-11.686,4.551-22.673,12.814-30.936C215.581,157.205,243.335,157.205,260.393,174.263z"/>
	</g>
	<g>
		<path d="M69.708,138.45H40.826l102.198-114h-33.575L25,118.28V24.45H0v249h25v-110h44.708c24.87,0,43.292,17.948,43.292,41.75
			v68.25h25V205.2C138,167.77,108.189,138.45,69.708,138.45z"/>
	</g>
</g>
</svg>